# xmcd CD database file
#
# Track frame offsets:
#	150
#	22044
#	35633
#	55095
#	69673
#	90015
#	117414
#	135628
#	149767
#	162822
#
# Disc length: 2551 seconds
#
# Revision: 0
# Processed by: cddbd v1.5.2PL0 Copyright (c) Steve Scherf et al.
# Submitted via: CDex 1.70beta2
#
DISCID=8909f50a
DTITLE=Benny Goodman - Swing Classics 1
DYEAR=1900
DGENRE=Jazz
TTITLE0=Don't be that way
TTITLE1=Rose room
TTITLE2=Between the devil and the deep blue sea
TTITLE3=Body and soul
TTITLE4=After you've gone
TTITLE5=Slipped disc
TTITLE6=On the Alamo
TTITLE7=Just one of those things
TTITLE8=Blue and sentimental
TTITLE9=Airmail special
EXTD=
EXTT0=
EXTT1=
EXTT2=
EXTT3=
EXTT4=
EXTT5=
EXTT6=
EXTT7=
EXTT8=
EXTT9=
PLAYORDER=
